# xmcd
#
# Track frame offsets: 
#        150
#        17425
#        98887
#        134882
#        176652
#
# Disc length: 2954 seconds
#
# Revision: 0
# Processed by: cddbd v1.4PL0 Copyright (c) Steve Scherf et al.
# Submitted via: ExactAudioCopy v0.95a3
#
DISCID=3e0b8805
DTITLE=Tchaikovsky 1840-1893 - Peter Tchaikovsky
DYEAR=1900
DGENRE=Classical
TTITLE0=Serenade for Strings: III Waltz
TTITLE1=Symphony No.6: I Adagio
TTITLE2=Symphony No.6: II Allegro non troppo
TTITLE3=Symphony No.6: III Allegro molto vivace
TTITLE4=Symphony No.6: IV Adagio lamentoso
EXTD=
EXTT0=
EXTT1=
EXTT2=
EXTT3=
EXTT4=
PLAYORDER=
